<?xml version="1.0" encoding="UTF-8"?>
<svg version="1.1" xmlns="http://www.w3.org/2000/svg" width="512" height="512">
<path d="M0 0 C4.73142804 0.00257712 9.46285439 0.00017147 14.19428253 -0.00138617 C22.13162338 -0.00319254 30.06895484 -0.00084219 38.00629425 0.00395441 C47.1113949 0.00939404 56.21647314 0.00763029 65.32157326 0.00212801 C73.21624757 -0.00244721 81.11091523 -0.00303234 89.00559044 -0.00043333 C93.68692007 0.00110544 98.36823926 0.00139072 103.04956818 -0.00196981 C207.89710326 -0.0665621 207.89710326 -0.0665621 247.80902863 39.78666925 C265.35512647 58.22631838 274.63389711 80.77573108 277.90277863 105.7593255 C278.01847198 106.63250422 278.13416534 107.50568293 278.25336456 108.4053216 C280.51384996 127.88053701 280.31421262 147.6823329 280.32074738 167.2593255 C280.3239758 169.58891554 280.32734093 171.91850538 280.33083344 174.24809504 C280.33675909 179.08843184 280.33868 183.92875096 280.33808136 188.76909113 C280.33797964 194.90021175 280.35167195 201.03121684 280.36885357 207.16231012 C280.38009094 211.96025831 280.38199707 216.75817948 280.38147163 221.55613947 C280.38263261 223.81383397 280.38694494 226.07152963 280.394804 228.32921076 C280.43160601 239.98208441 280.19893283 251.54288349 279.25165558 263.16166925 C279.17250758 264.13679468 279.09335958 265.11192011 279.01181316 266.11659479 C276.12488535 298.14314477 259.4203382 326.46362276 235.40277863 347.3218255 C211.29761369 366.66165616 183.71820221 374.12557071 153.24652863 374.38041925 C151.229276 374.40494121 149.21202344 374.42947441 147.19477844 374.45461607 C142.2801413 374.51463037 137.3654215 374.56562217 132.45063019 374.61113214 C94.7480514 374.96971709 69.66339418 379.82745021 39.15277863 402.1343255 C36.90810013 403.75927434 34.66096803 405.38079039 32.41376495 407.00224543 C30.90888938 408.08853127 29.4048169 409.17593058 27.90155792 410.26445246 C21.28393515 415.054344 14.62141192 419.77835952 7.93402863 424.470263 C5.66826277 426.06056989 3.42126955 427.66755712 1.18402863 429.298388 C-10.42818787 437.72082898 -21.15210038 440.94250733 -35.60112762 438.70854425 C-46.86661043 435.76107444 -55.63821117 428.87251367 -61.84722137 419.1343255 C-67.72063668 408.46314943 -67.41976639 397.71990059 -64.84722137 386.1343255 C-63.90029232 381.11645318 -63.90029232 381.11645318 -64.84722137 376.1343255 C-68.49933482 375.29887744 -71.9012004 375.00059587 -75.64409637 374.95854425 C-107.65061925 374.36202017 -131.17923404 366.48725205 -154.40972137 343.610888 C-173.1015331 324.17824228 -180.01833277 298.7682361 -179.97661591 272.38823175 C-179.97797317 271.00729053 -179.97975493 269.62634967 -179.98192596 268.24540949 C-179.98646844 264.50884465 -179.98472204 260.77230758 -179.98154688 257.03574228 C-179.97899866 253.09651606 -179.98136839 249.15729207 -179.98293304 245.21806574 C-179.984751 238.58728346 -179.98236179 231.95651233 -179.97759247 225.32573175 C-179.97218652 217.72342284 -179.9738871 210.12114091 -179.97941887 202.51883268 C-179.984004 195.9484969 -179.98457346 189.37816911 -179.9819802 182.80783224 C-179.98044211 178.90372959 -179.98015344 174.99963945 -179.98351669 171.09553766 C-180.01853611 123.96511841 -180.01853611 123.96511841 -177.53472137 105.5718255 C-177.40428436 104.58134211 -177.27384735 103.59085871 -177.1394577 102.57036066 C-172.77346252 71.23431801 -156.55749239 44.27811977 -131.54131317 24.85551691 C-93.56245387 -3.57811721 -45.04728229 -0.03233762 0 0 Z M-97.84722137 43.1343255 C-98.82046356 43.61514582 -99.79370575 44.09596613 -100.79644012 44.59135675 C-119.27676644 54.52000266 -134.13899089 72.11062807 -141.16362762 91.829638 C-148.8046576 118.38997098 -147.02333434 147.43011437 -147.08550262 174.782763 C-147.08956573 176.32465997 -147.093683 177.86655679 -147.09785271 179.40845346 C-147.11677162 186.64430811 -147.13104378 193.88015326 -147.13946468 201.11602771 C-147.1492663 209.39274081 -147.17571789 217.66918864 -147.21596557 225.94580829 C-147.24626997 232.40420001 -147.26094595 238.86251599 -147.26424569 245.32097733 C-147.26657433 249.15319325 -147.27524933 252.98512133 -147.30070686 256.81725931 C-147.45195008 280.82973596 -146.82835928 303.46435294 -129.31328583 321.93242121 C-113.99371317 337.18494978 -96.24465314 341.80746537 -75.15019989 342.41679621 C-60.83185665 342.85075479 -50.31306848 344.48486705 -39.84722137 355.1343255 C-32.13261806 365.09495257 -29.87787105 375.72346313 -30.84722137 388.1343255 C-31.36843988 390.8651541 -32.09437514 393.45231078 -32.84722137 396.1343255 C-33.27725969 399.86132428 -33.31420562 401.40583008 -31.28472137 404.5718255 C-28.88062966 406.4333463 -28.88062966 406.4333463 -25.64800262 406.06010675 C-20.9425935 404.91397935 -18.29655335 402.89593693 -14.59722137 399.8843255 C-13.18864667 398.78167354 -11.77706026 397.68286054 -10.36284637 396.5874505 C-9.62743622 396.01704035 -8.89202606 395.44663019 -8.13433075 394.85893488 C-4.30477087 391.97123089 -0.32691741 389.30926275 3.65277863 386.6343255 C9.71984007 382.54023743 15.64700368 378.32473748 21.46527863 373.8843255 C46.70927775 354.72726699 73.30603955 342.93229051 105.39974022 342.53843927 C107.82144675 342.508346 110.24231657 342.46070758 112.66365814 342.40922785 C117.80564687 342.302813 122.94785939 342.21692689 128.09027863 342.1343255 C134.05953296 342.03837077 140.02836389 341.93330829 145.99704933 341.80650568 C148.3479194 341.76091952 150.69861141 341.73108295 153.04973602 341.7021966 C160.56486035 341.5712593 167.85564112 341.05483042 175.26825714 339.767138 C175.94482581 339.64972254 176.62139448 339.53230707 177.31846523 339.41133356 C198.9717636 335.29769786 218.74702755 320.97782336 231.27777863 303.1030755 C247.07406589 278.45129386 247.31510156 253.50642487 247.28559113 225.2905755 C247.2862668 222.99056726 247.28723902 220.69055909 247.2884903 218.39055109 C247.28995722 213.5863856 247.2878468 208.78223881 247.28314972 203.9780755 C247.27747898 197.88810706 247.28072102 191.79818297 247.28672218 185.70821619 C247.29037726 180.96004654 247.28916636 176.21188698 247.28659439 171.46371698 C247.28593737 169.2219465 247.28670954 166.98017504 247.28907394 164.7384057 C247.44169221 136.51371199 247.44169221 136.51371199 244.84027863 108.4468255 C244.64353546 107.08472956 244.64353546 107.08472956 244.44281769 105.69511652 C241.83759574 88.75054652 234.60401999 74.8645886 223.15277863 62.1343255 C222.52758331 61.42663019 221.902388 60.71893488 221.25824738 59.98979425 C200.33932727 37.66159953 171.707185 34.22341811 142.74447632 33.22624063 C129.20203888 32.87967614 115.64684617 32.96897697 102.10100603 32.96706843 C99.22701995 32.96634992 96.35303843 32.96420073 93.4790535 32.96157122 C83.39324142 32.95236115 73.30744242 32.94823067 63.22162628 32.94902277 C53.91676269 32.94962174 44.6119574 32.93909416 35.30710852 32.92327911 C27.23917331 32.91006997 19.17125684 32.90484443 11.10331094 32.90547818 C6.31999102 32.90572936 1.536723 32.90309433 -3.24658585 32.89230013 C-51.81037278 31.05462956 -51.81037278 31.05462956 -97.84722137 43.1343255 Z " fill="#000000" transform="translate(205.84722137451172,25.86567449569702)"/>
<path d="M0 0 C0.74153641 -0.00367669 1.48307282 -0.00735338 2.24708003 -0.01114148 C4.73892031 -0.0221796 7.23071889 -0.02602235 9.72257996 -0.02983093 C11.50636935 -0.03609542 13.29015744 -0.04274221 15.07394409 -0.04974365 C19.92524972 -0.06715302 24.77654549 -0.07770497 29.62787461 -0.08594918 C32.65802256 -0.09109885 35.68816744 -0.09717456 38.71831322 -0.10346031 C48.19674421 -0.12251112 57.67516741 -0.13674322 67.15361387 -0.14507228 C78.0992231 -0.15484917 89.04463035 -0.18118098 99.99016839 -0.22157317 C108.44800388 -0.25171546 116.9057814 -0.26653931 125.36366957 -0.26985329 C130.4164858 -0.27220566 135.4690862 -0.28119063 140.52184486 -0.30631447 C145.27512157 -0.32956758 150.02803992 -0.33383955 154.78135872 -0.32355309 C156.52525269 -0.32305696 158.26916415 -0.32939986 160.0130043 -0.34310913 C162.39557432 -0.36079087 164.77685304 -0.35374122 167.15942383 -0.34057617 C168.1923676 -0.35703004 168.1923676 -0.35703004 169.24617893 -0.37381631 C174.18588725 -0.3080054 176.94671904 1.09615368 180.77018738 4.14717102 C184.85160856 8.66982692 186.09383273 11.93863455 185.98112488 18.09248352 C185.4916299 22.86052719 183.23837781 25.93829779 179.70768738 28.95967102 C175.44832034 32.13154009 172.81438197 32.29570284 167.66062927 32.29434204 C166.91994729 32.29801873 166.1792653 32.30169542 165.41613841 32.30548352 C162.92119209 32.31654273 160.42628738 32.32036798 157.93132019 32.32417297 C156.14767829 32.33043595 154.36403771 32.3370826 152.58039856 32.34408569 C147.72490163 32.36151114 142.86941455 32.37205172 138.01389408 32.38029122 C134.9815739 32.38543825 131.94925679 32.39151412 128.91693878 32.39780235 C119.43316501 32.41685898 109.94939904 32.43108895 100.46560979 32.43941432 C89.51150046 32.44918862 78.55759311 32.47551123 67.60355496 32.51591522 C59.14149338 32.54605833 50.67948975 32.56088149 42.21737552 32.56419533 C37.16119101 32.56654794 32.10522216 32.57553565 27.04909515 32.60065651 C22.29172792 32.62391057 17.53471872 32.6281812 12.77730942 32.61789513 C11.03180375 32.617399 9.28628061 32.62374203 7.5408287 32.63745117 C5.15601605 32.65513289 2.77249348 32.6480832 0.38768005 32.63491821 C-0.30163125 32.64588746 -0.99094255 32.6568567 -1.70114207 32.66815835 C-6.64293797 32.60238261 -9.40480667 31.1998964 -13.22981262 28.14717102 C-17.31336079 23.62215819 -18.54610681 20.35651812 -18.44465637 14.20185852 C-17.84947258 8.5097372 -14.37949358 4.77814186 -10.22981262 1.14717102 C-6.74596941 -0.01411005 -3.62373299 -0.00096082 0 0 Z " fill="#000000" transform="translate(172.2298126220703,239.8528289794922)"/>
<path d="M0 0 C0.89788239 -0.0049649 1.79576477 -0.00992981 2.72085571 -0.01504517 C5.69501509 -0.02966519 8.66912112 -0.03646867 11.64331055 -0.04199219 C13.70973207 -0.04774393 15.77615358 -0.05350166 17.84257507 -0.05926514 C22.17776742 -0.06977478 26.51294123 -0.07561764 30.84814453 -0.07910156 C36.39990203 -0.08458508 41.95141412 -0.10861033 47.50309467 -0.13707352 C51.77278863 -0.15570861 56.04242358 -0.16090597 60.31215477 -0.16243744 C62.35865813 -0.1654627 64.40516048 -0.17348696 66.45162392 -0.18662262 C69.31689682 -0.20370055 72.18157168 -0.20179848 75.046875 -0.1953125 C76.31187584 -0.20913467 76.31187584 -0.20913467 77.60243225 -0.22323608 C83.23522408 -0.18334706 87.57918976 0.69826479 91.86206055 4.69628906 C96.60213356 10.89484608 97.09223654 15.38816616 96.2175293 23.16113281 C94.57086332 27.23521156 92.40242284 29.42700153 88.69421387 31.72451782 C84.27466742 33.55073661 80.64117682 33.58282258 75.91088867 33.54931641 C74.99306107 33.55457336 74.07523346 33.55983032 73.1295929 33.56524658 C70.10664673 33.57841117 67.08423049 33.56972094 64.0612793 33.55957031 C61.95430399 33.56159206 59.84732936 33.56450434 57.74035645 33.56826782 C53.3288709 33.57268638 48.91756782 33.56627507 44.50610352 33.55224609 C38.85686466 33.53515463 33.20805343 33.54499829 27.55883026 33.56296349 C23.20933827 33.57381387 18.85994734 33.57034919 14.51045227 33.56258011 C12.42767791 33.56058158 10.34489432 33.56302516 8.26213074 33.57001877 C5.34923055 33.57765377 2.43701894 33.56600007 -0.47583008 33.54931641 C-1.33315231 33.5553891 -2.19047455 33.56146179 -3.07377625 33.56771851 C-8.05392276 33.51498566 -11.46078803 32.90411179 -15.7824707 30.16113281 C-19.66695868 26.06083995 -21.52317678 22.45156246 -22.1574707 16.84863281 C-21.69082308 12.25993121 -20.45461643 8.92011457 -17.7824707 5.16113281 C-11.92192136 0.49661395 -7.26420116 0.00956003 0 0 Z " fill="#000000" transform="translate(175.782470703125,153.8388671875)"/>
</svg>
